<svg width="691" height="733" viewBox="0 0 691 733" fill="none" xmlns="http://www.w3.org/2000/svg">
<path fill-rule="evenodd" clip-rule="evenodd" d="M689.691 472.25C690.381 472.94 690.381 474.058 689.691 474.749L473.749 690.691C473.059 691.381 471.94 691.381 471.25 690.691C470.56 690.001 470.56 688.882 471.25 688.192L687.192 472.25C687.882 471.559 689.001 471.559 689.691 472.25Z" fill="url(#paint0_linear_31_63)"/>
<path fill-rule="evenodd" clip-rule="evenodd" d="M646.648 542.194C647.338 542.884 647.338 544.003 646.648 544.693L553.377 637.964C552.687 638.654 551.568 638.654 550.878 637.964C550.188 637.274 550.188 636.155 550.878 635.465L644.149 542.194C644.839 541.504 645.958 541.504 646.648 542.194Z" fill="url(#paint1_linear_31_63)"/>
<path fill-rule="evenodd" clip-rule="evenodd" d="M399.007 513.284C399.697 513.974 399.697 515.093 399.007 515.783L183.065 731.725C182.375 732.415 181.256 732.415 180.566 731.725C179.876 731.035 179.876 729.916 180.566 729.226L396.508 513.284C397.198 512.594 398.317 512.594 399.007 513.284Z" fill="url(#paint2_linear_31_63)"/>
<path fill-rule="evenodd" clip-rule="evenodd" d="M283.262 598.8C283.952 599.49 283.952 600.609 283.262 601.299L189.991 694.57C189.301 695.26 188.183 695.26 187.492 694.57C186.802 693.88 186.802 692.761 187.492 692.071L280.763 598.8C281.453 598.11 282.572 598.11 283.262 598.8Z" fill="url(#paint3_linear_31_63)"/>
<path fill-rule="evenodd" clip-rule="evenodd" d="M468.262 48.8003C468.952 49.4904 468.952 50.6092 468.262 51.2993L374.991 144.57C374.301 145.26 373.183 145.26 372.492 144.57C371.802 143.88 371.802 142.761 372.492 142.071L465.763 48.8003C466.453 48.1102 467.572 48.1102 468.262 48.8003Z" fill="url(#paint4_linear_31_63)"/>
<path fill-rule="evenodd" clip-rule="evenodd" d="M219.691 37.8364C220.381 38.5265 220.381 39.6454 219.691 40.3354L3.74877 256.278C3.05867 256.968 1.93982 256.968 1.24974 256.278C0.559654 255.588 0.559648 254.469 1.24975 253.779L217.192 37.8364C217.882 37.1463 219.001 37.1463 219.691 37.8364Z" fill="url(#paint5_linear_31_63)"/>
<path fill-rule="evenodd" clip-rule="evenodd" d="M210.006 1.24951C210.696 1.9396 210.696 3.05845 210.006 3.74853L108.127 105.628C107.437 106.318 106.318 106.318 105.628 105.628C104.938 104.938 104.938 103.819 105.628 103.129L207.507 1.24951C208.197 0.559428 209.316 0.559428 210.006 1.24951Z" fill="url(#paint6_linear_31_63)"/>
<defs>
<linearGradient id="paint0_linear_31_63" x1="511.359" y1="728.196" x2="727.199" y2="512.356" gradientUnits="userSpaceOnUse">
<stop stop-color="#393F54"/>
<stop offset="1" stop-color="#111319"/>
</linearGradient>
<linearGradient id="paint1_linear_31_63" x1="590.256" y1="676.2" x2="684.885" y2="581.571" gradientUnits="userSpaceOnUse">
<stop stop-color="#393F54"/>
<stop offset="1" stop-color="#111319"/>
</linearGradient>
<linearGradient id="paint2_linear_31_63" x1="220.675" y1="769.23" x2="436.515" y2="553.39" gradientUnits="userSpaceOnUse">
<stop stop-color="#393F54"/>
<stop offset="1" stop-color="#111319"/>
</linearGradient>
<linearGradient id="paint3_linear_31_63" x1="226.87" y1="732.806" x2="321.5" y2="638.177" gradientUnits="userSpaceOnUse">
<stop stop-color="#393F54"/>
<stop offset="1" stop-color="#111319"/>
</linearGradient>
<linearGradient id="paint4_linear_31_63" x1="411.87" y1="182.806" x2="506.5" y2="88.1771" gradientUnits="userSpaceOnUse">
<stop stop-color="#393F54"/>
<stop offset="1" stop-color="#111319"/>
</linearGradient>
<linearGradient id="paint5_linear_31_63" x1="41.3588" y1="293.783" x2="257.199" y2="77.9428" gradientUnits="userSpaceOnUse">
<stop stop-color="#393F54"/>
<stop offset="1" stop-color="#111319"/>
</linearGradient>
<linearGradient id="paint6_linear_31_63" x1="145.057" y1="143.813" x2="248.193" y2="40.6775" gradientUnits="userSpaceOnUse">
<stop stop-color="#393F54"/>
<stop offset="1" stop-color="#111319"/>
</linearGradient>
</defs>
</svg>
