<svg width="884" height="1422" viewBox="0 0 884 1422" fill="none" xmlns="http://www.w3.org/2000/svg">
<path d="M141.5 421L153.5 399L95.5 548.5L78 585L141.5 421Z" fill="#78454F"/>
<path d="M78 585L95 548.5L194 635L182 656.5L141.5 652.5L103 630.5L78 585Z" fill="#131416"/>
<path d="M52 652L78 585L103 630.5L52 652Z" fill="#802939"/>
<path d="M103 630.5L52 652L82.5 681L141 733L164.5 688L141.5 652.5L103 630.5Z" fill="#792332"/>
<path d="M182 656.5L164.5 688L141.5 652.5L182 656.5Z" fill="#8E425A"/>
<path d="M197 763.5L284 560L194 635L180.61 659L167.3 683L164.5 688L141 733L117 777.5L197 763.5Z" fill="#7C2535"/>
<path d="M76.5 679.5L52 652L80.5 679L141 733L138 731.5L76.5 679.5Z" fill="#774650"/>
<path d="M82.5 795L76.5 679.5L138 731.5L141 733L117 777.5L197 763.5L166.5 863.5L97.5 876L108.5 818.5L82.5 795Z" fill="#7E2838"/>
<path d="M259.5 876L166.5 863.5L197 763.5L301 775L259.5 876Z" fill="#7A2C3D"/>
<path d="M340.5 631L301 775L197 763.5L284 560L340.5 631Z" fill="#712130"/>
<path d="M123.302 590.5C121.227 597.791 118.947 599.575 113.302 599.5L104.802 588C103.894 582.867 103 580 104.302 574C105 572 107.011 570.307 110.302 570C113.842 569.67 121.5 577 122.802 580.5C123.949 584.578 124.038 586.764 123.302 590.5Z" fill="white"/>
<path d="M113.302 623C109.302 619 105.967 598.167 104.8 588L113.302 599.5C114.302 611.5 124.302 627 135.302 628C144.102 628.8 147.302 620.333 147.802 616C147.802 616 153.802 621.1 153.802 625.5C153.802 629.9 148.136 636.667 145.302 639.5C136.302 635.667 117.302 627 113.302 623Z" fill="#C4E9B3"/>
<path d="M191.5 199.5L298 298.5L367 274.5L117 97.5L191.5 199.5Z" fill="#65364A"/>
<path d="M16 67.5L117 97.5L191.5 199.5L298 298.5L213.5 401L133.5 319.5L16 67.5Z" fill="#0A0B0C"/>
<path d="M0 66L16 67.5L133.5 319.5L46 206.5L0 66Z" fill="#D9D9D9"/>
<path d="M133.5 319.5L213.5 401L155.5 399.5L106.5 350.5L81 301L133.5 319.5Z" fill="#BEC4CF"/>
<path d="M81 301L90 263.33L133.5 319.5L81 301Z" fill="#CDD7E3"/>
<path d="M61.5 304.5L0 66L46 206.5L90 263.34L81 301L82.8008 304.5H61.5Z" fill="#C1C9D3"/>
<path d="M18.5 173.5L0 66L61.5 304.5L18.5 173.5Z" fill="#B6BCC6"/>
<path d="M61.5 304.5H83L106.5 350.5L155.5 399.5L143 422.5L61.5 304.5Z" fill="#C2C9D4"/>
<path d="M211 400.5L191 513L367 334L295.5 298L211 400.5Z" fill="#711E2D"/>
<path d="M283.5 560L191 513L367 334L283.5 560Z" fill="#6E202E"/>
<path d="M372 505L283.5 560L367 334L372 505Z" fill="#7C2233"/>
<path d="M500 386L372 505L367 334L295.5 298L459.5 241L520.5 285L500 386Z" fill="#6D1F2D"/>
<path d="M541 248.5L459.5 241L520.5 285L541 248.5Z" fill="#632A33"/>
<path d="M193.5 635L191 513L283.5 560L193.5 635Z" fill="#945870"/>
<path d="M372 505L283.5 560L340.5 631L372 505Z" fill="#8F4057"/>
<path d="M423 566L340.5 631L372 505L423 566Z" fill="#D3DCE9"/>
<path d="M505 534L423 566L372 505L500 386L505 534Z" fill="#C2CCD7"/>
<path d="M191 513L95 548.5L211 400.5L191 513Z" fill="#CDD7E4"/>
<path d="M193.5 635L191 513L95 548.5L193.5 635Z" fill="#D2DBE8"/>
<path d="M211 400.5L95 548.5L143 422.5L155.5 399.5L211 400.5Z" fill="#774650"/>
<path d="M630.5 374.5L505 534L500 386L630.5 374.5Z" fill="#6D1F2D"/>
<path d="M647.5 565.5L505 534L630.5 374.5L777 391L647.5 565.5Z" fill="#65364A"/>
<path d="M777 391L781 377L789 402L777 391Z" fill="#6A5665"/>
<g filter="url(#filter0_d_36_5)">
<path d="M735 359L777 391L630.5 374.5L723 371L735 359Z" fill="#220C0F"/>
</g>
<path d="M520.5 285L500 386H502L593.5 293L661 12.5L520.5 285Z" fill="#0E0F11"/>
<path d="M626.5 374.85L502.2 385.81L593.5 293L626.5 374.85Z" fill="#9FA1AB"/>
<path d="M630.5 374.5L626.5 374.85L593.5 293L766 258L747.5 313.5L630.5 374.5Z" fill="#8B8C95"/>
<path d="M723 372L630.5 374.5L747.5 313.5V346L735 360L723 372Z" fill="#574849"/>
<path d="M766 258L593.5 293L731 216.5L766 258Z" fill="#999FA8"/>
<path d="M704 4L661 12.5L594 291L717 158L704 4Z" fill="#9EA1AB"/>
<path d="M593.5 293L594 291L717 158L746.5 168L731 216.5L593.5 293Z" fill="#574849"/>
<g filter="url(#filter1_if_36_5)">
<path d="M750.75 371L735 360L747.5 346V313.5L766 258L731 216.5L746.5 168L717 158L704 4L751 168.5L741.5 219L782.5 271.5L770 334.5L750.75 371Z" fill="#493D3B"/>
</g>
<path d="M777 391L750.75 371L770 334.5L782.5 271.5L775.87 263L818 257.5L777 391Z" fill="#B7BDC6"/>
<path d="M704 4L818 257.5L775.87 263L741.5 219L751 168.5L704 4Z" fill="#A9ADB6"/>
<path d="M676.5 637L504.5 727L680.5 666L676.5 637Z" fill="#280C0F"/>
<path d="M804.5 570.5L676.5 637L680.5 666L804.5 570.5Z" fill="#2F1218"/>
<path d="M845 594.1L882 544L804.5 570.5L845 594.1Z" fill="#39242C"/>
<path d="M340.5 631L301 775L415.5 652L480 643.5L557 618.5L647.5 565.5L505 534L423 566L340.5 631Z" fill="#131416"/>
<path d="M777 391L647.5 565.5L848 454.5L777 391Z" fill="#6D546D"/>
<path d="M804.5 570.5L647.5 565.5L848 454.5L804.5 570.5Z" fill="#583B4E"/>
<path d="M399 839L301 775L415.5 652L425 699.5L412.5 768.5L399 839Z" fill="url(#paint0_linear_36_5)"/>
<path d="M504.5 727L399 839L425 699.5L504.5 727Z" fill="#581A26"/>
<path d="M676.5 637L504.5 727L425 699.5L480 643.5L557 618.5L676.5 637Z" fill="#601B27"/>
<path d="M647.5 565.5L676.5 637L557 618.5L647.5 565.5Z" fill="#601B27"/>
<path d="M804.5 570.5L676.5 637L647.5 565.5L804.5 570.5Z" fill="#816F89"/>
<path d="M259.5 876L301 775L399 839L369 956.5L259.5 876Z" fill="#4C2632"/>
<path d="M395.5 889L369 956.5L399 839L395.5 889Z" fill="#3F202A"/>
<path d="M459 853L395.5 889L399 839L504.5 727L459 853Z" fill="#32151C"/>
<g filter="url(#filter2_ii_36_5)">
<path d="M635.5 789L680.5 666L504.5 727L459 853L635.5 789Z" fill="#601B27"/>
</g>
<path d="M789 682.5L635.5 789L680.5 666L883.5 616.5L789 682.5Z" fill="#3B161E"/>
<g filter="url(#filter3_i_36_5)">
<path d="M804.5 570.5L883.5 616.5L680.5 666L804.5 570.5Z" fill="#663549"/>
</g>
<path d="M480 643.5L425 699.5L415.5 652L480 643.5Z" fill="#935B73"/>
<path d="M881.99 544L825.69 514L804.49 570.5L881.99 544Z" fill="#472A35"/>
<path d="M479.604 627.5C454.116 611.403 447.024 599.753 448.104 574L504.604 551.5L543.104 553.5C552.047 575.842 551.288 587.522 540.604 607C516.077 613.712 502.763 618.205 479.604 627.5Z" fill="url(#paint1_linear_36_5)"/>
<g filter="url(#filter4_d_36_5)">
<path d="M490.104 612C467.333 604.118 461.714 594.631 464 568L504.5 551.5L531 580C531 590 528.5 595.652 523.604 600.5C512.466 611.529 505.28 614.539 490.104 612Z" fill="#131416"/>
</g>
<g filter="url(#filter5_d_36_5)">
<circle cx="520" cy="568" r="18" fill="#D9D9D9"/>
</g>
<path d="M166.5 863L97.5 876L109 904.5L151 961.5H166L186 904.5L260 875L166.5 863Z" fill="#0D0E0F"/>
<path d="M186 904.5L166 961.5L260 875L186 904.5Z" fill="black"/>
<path d="M94 954L97.5 876L109 904.5L151 961.5L143 991L94 954Z" fill="#6F2936"/>
<path d="M166 961.5H151L143 991L170 975L229 993L166 961.5Z" fill="#111111"/>
<path d="M260 875L166 961.5L229 993L369 956.5L260 875Z" fill="#411118"/>
<path d="M214.5 1024L143 991L170 975L229 993L214.5 1024Z" fill="#8A8A92"/>
<path d="M229 993L214.5 1024L239.5 1017L342 989L358.5 962L229 993Z" fill="#56494A"/>
<path d="M358.5 962L369 956.5L229 993L358.5 962Z" fill="#0F1013"/>
<path d="M648 842L459 853L635.5 789L883.5 616.5L772.5 743L648 842Z" fill="#271114"/>
<path d="M438.5 904L459 853L395.5 889L380.58 927L438.5 904Z" fill="#4F4344"/>
<path d="M459 853L438.5 904L648 842L459 853Z" fill="#544646"/>
<path d="M820.5 800L648 842L772.5 743L820.5 800Z" fill="#290F14"/>
<path d="M370.77 952L380.58 927L438.5 904L648 842L502 950.5L402.5 991.5L370.77 952Z" fill="#584A49"/>
<path d="M734.5 916.5L648 842L820 800L734.5 916.5Z" fill="#270C0F"/>
<path d="M856 738.5L829.5 678L772.5 743L856 738.5Z" fill="#5B4558"/>
<path d="M812.9 791L772.5 743L856 738.5L812.9 791Z" fill="#321A21"/>
<path d="M808.26 816L734.5 916.5L816.5 925.5L808.26 816Z" fill="#391D26"/>
<path d="M760 1107.5L734.5 916.5L816.5 925.5L760 1107.5Z" fill="#32151C"/>
<path d="M648 842L734.5 916.5L760 1107.5L657 1070.5L648 842Z" fill="#6D6C76"/>
<path d="M502 950.5L648 842L657 1070.5L579.5 1304L502 950.5Z" fill="#989BA3"/>
<path d="M712.5 1258.5L579.5 1304L657 1070.5L712.5 1258.5Z" fill="#6D686D"/>
<path d="M428.5 1162L502 950.5L402.5 991.5L370.77 952L369 956.5L358.5 962L342 989L323 994.2L428.5 1162Z" fill="#BDC3CD"/>
<path d="M712.5 1258.5L657 1070.5L760 1107.5L712.5 1258.5Z" fill="#71727D"/>
<path d="M323 994.2L237 1017.7L254.5 1068L379 1300.5L428.5 1162L323 994.2Z" fill="#C5CCD8"/>
<path d="M487.5 1389.5L428.5 1162L379 1300.5L487.5 1389.5Z" fill="#C2C9D4"/>
<path d="M502 950.5L428.5 1162L487.5 1389.5L579.5 1304L502 950.5Z" fill="#B6BCC5"/>
<path d="M635.5 1346L579.5 1304L487.5 1389.5L528.5 1421.5L635.5 1346Z" fill="#63585A"/>
<path d="M712.5 1258.5L635.5 1346L579.5 1304L712.5 1258.5Z" fill="#5F5556"/>
<g filter="url(#filter6_dif_36_5)">
<path d="M393.569 991.872L359 946.281L385.553 884.446L449.682 846.716L521.326 842L558.901 899.643L608 1071L463.209 1035.37L393.569 991.872Z" fill="#6B6361"/>
</g>
<defs>
<filter id="filter0_d_36_5" x="625.5" y="358" width="156.5" height="42" filterUnits="userSpaceOnUse" color-interpolation-filters="sRGB">
<feFlood flood-opacity="0" result="BackgroundImageFix"/>
<feColorMatrix in="SourceAlpha" type="matrix" values="0 0 0 0 0 0 0 0 0 0 0 0 0 0 0 0 0 0 127 0" result="hardAlpha"/>
<feOffset dy="4"/>
<feGaussianBlur stdDeviation="2.5"/>
<feComposite in2="hardAlpha" operator="out"/>
<feColorMatrix type="matrix" values="0 0 0 0 0.133333 0 0 0 0 0.0470588 0 0 0 0 0.0588235 0 0 0 0.5 0"/>
<feBlend mode="normal" in2="BackgroundImageFix" result="effect1_dropShadow_36_5"/>
<feBlend mode="normal" in="SourceGraphic" in2="effect1_dropShadow_36_5" result="shape"/>
</filter>
<filter id="filter1_if_36_5" x="700" y="0" width="86.5" height="375" filterUnits="userSpaceOnUse" color-interpolation-filters="sRGB">
<feFlood flood-opacity="0" result="BackgroundImageFix"/>
<feBlend mode="normal" in="SourceGraphic" in2="BackgroundImageFix" result="shape"/>
<feColorMatrix in="SourceAlpha" type="matrix" values="0 0 0 0 0 0 0 0 0 0 0 0 0 0 0 0 0 0 127 0" result="hardAlpha"/>
<feOffset dx="6" dy="9"/>
<feGaussianBlur stdDeviation="2"/>
<feComposite in2="hardAlpha" operator="arithmetic" k2="-1" k3="1"/>
<feColorMatrix type="matrix" values="0 0 0 0 0 0 0 0 0 0 0 0 0 0 0 0 0 0 0.5 0"/>
<feBlend mode="normal" in2="shape" result="effect1_innerShadow_36_5"/>
<feGaussianBlur stdDeviation="2" result="effect2_foregroundBlur_36_5"/>
</filter>
<filter id="filter2_ii_36_5" x="455" y="662" width="237.4" height="195" filterUnits="userSpaceOnUse" color-interpolation-filters="sRGB">
<feFlood flood-opacity="0" result="BackgroundImageFix"/>
<feBlend mode="normal" in="SourceGraphic" in2="BackgroundImageFix" result="shape"/>
<feColorMatrix in="SourceAlpha" type="matrix" values="0 0 0 0 0 0 0 0 0 0 0 0 0 0 0 0 0 0 127 0" result="hardAlpha"/>
<feOffset dx="-4" dy="4"/>
<feGaussianBlur stdDeviation="2"/>
<feComposite in2="hardAlpha" operator="arithmetic" k2="-1" k3="1"/>
<feColorMatrix type="matrix" values="0 0 0 0 0 0 0 0 0 0 0 0 0 0 0 0 0 0 0.25 0"/>
<feBlend mode="normal" in2="shape" result="effect1_innerShadow_36_5"/>
<feColorMatrix in="SourceAlpha" type="matrix" values="0 0 0 0 0 0 0 0 0 0 0 0 0 0 0 0 0 0 127 0" result="hardAlpha"/>
<feOffset dx="13" dy="-4"/>
<feGaussianBlur stdDeviation="5.95"/>
<feComposite in2="hardAlpha" operator="arithmetic" k2="-1" k3="1"/>
<feColorMatrix type="matrix" values="0 0 0 0 0 0 0 0 0 0 0 0 0 0 0 0 0 0 0.5 0"/>
<feBlend mode="normal" in2="effect1_innerShadow_36_5" result="effect2_innerShadow_36_5"/>
</filter>
<filter id="filter3_i_36_5" x="680.5" y="570.5" width="211" height="103.5" filterUnits="userSpaceOnUse" color-interpolation-filters="sRGB">
<feFlood flood-opacity="0" result="BackgroundImageFix"/>
<feBlend mode="normal" in="SourceGraphic" in2="BackgroundImageFix" result="shape"/>
<feColorMatrix in="SourceAlpha" type="matrix" values="0 0 0 0 0 0 0 0 0 0 0 0 0 0 0 0 0 0 127 0" result="hardAlpha"/>
<feOffset dx="8" dy="8"/>
<feGaussianBlur stdDeviation="10"/>
<feComposite in2="hardAlpha" operator="arithmetic" k2="-1" k3="1"/>
<feColorMatrix type="matrix" values="0 0 0 0 0 0 0 0 0 0 0 0 0 0 0 0 0 0 0.25 0"/>
<feBlend mode="normal" in2="shape" result="effect1_innerShadow_36_5"/>
</filter>
<filter id="filter4_d_36_5" x="463.529" y="551.5" width="74.4709" height="66.3436" filterUnits="userSpaceOnUse" color-interpolation-filters="sRGB">
<feFlood flood-opacity="0" result="BackgroundImageFix"/>
<feColorMatrix in="SourceAlpha" type="matrix" values="0 0 0 0 0 0 0 0 0 0 0 0 0 0 0 0 0 0 127 0" result="hardAlpha"/>
<feOffset dx="5" dy="3"/>
<feGaussianBlur stdDeviation="1"/>
<feComposite in2="hardAlpha" operator="out"/>
<feColorMatrix type="matrix" values="0 0 0 0 0 0 0 0 0 0 0 0 0 0 0 0 0 0 0.5 0"/>
<feBlend mode="normal" in2="BackgroundImageFix" result="effect1_dropShadow_36_5"/>
<feBlend mode="normal" in="SourceGraphic" in2="effect1_dropShadow_36_5" result="shape"/>
</filter>
<filter id="filter5_d_36_5" x="502" y="550" width="46" height="42" filterUnits="userSpaceOnUse" color-interpolation-filters="sRGB">
<feFlood flood-opacity="0" result="BackgroundImageFix"/>
<feColorMatrix in="SourceAlpha" type="matrix" values="0 0 0 0 0 0 0 0 0 0 0 0 0 0 0 0 0 0 127 0" result="hardAlpha"/>
<feOffset dx="8" dy="4"/>
<feGaussianBlur stdDeviation="1"/>
<feComposite in2="hardAlpha" operator="out"/>
<feColorMatrix type="matrix" values="0 0 0 0 0 0 0 0 0 0 0 0 0 0 0 0 0 0 0.5 0"/>
<feBlend mode="normal" in2="BackgroundImageFix" result="effect1_dropShadow_36_5"/>
<feBlend mode="normal" in="SourceGraphic" in2="effect1_dropShadow_36_5" result="shape"/>
</filter>
<filter id="filter6_dif_36_5" x="259" y="742" width="449" height="429" filterUnits="userSpaceOnUse" color-interpolation-filters="sRGB">
<feFlood flood-opacity="0" result="BackgroundImageFix"/>
<feColorMatrix in="SourceAlpha" type="matrix" values="0 0 0 0 0 0 0 0 0 0 0 0 0 0 0 0 0 0 127 0" result="hardAlpha"/>
<feOffset dx="58" dy="48"/>
<feGaussianBlur stdDeviation="2"/>
<feComposite in2="hardAlpha" operator="out"/>
<feColorMatrix type="matrix" values="0 0 0 0 0 0 0 0 0 0 0 0 0 0 0 0 0 0 0.25 0"/>
<feBlend mode="normal" in2="BackgroundImageFix" result="effect1_dropShadow_36_5"/>
<feBlend mode="normal" in="SourceGraphic" in2="effect1_dropShadow_36_5" result="shape"/>
<feColorMatrix in="SourceAlpha" type="matrix" values="0 0 0 0 0 0 0 0 0 0 0 0 0 0 0 0 0 0 127 0" result="hardAlpha"/>
<feOffset dy="12"/>
<feGaussianBlur stdDeviation="50"/>
<feComposite in2="hardAlpha" operator="arithmetic" k2="-1" k3="1"/>
<feColorMatrix type="matrix" values="0 0 0 0 0 0 0 0 0 0 0 0 0 0 0 0 0 0 1 0"/>
<feBlend mode="normal" in2="shape" result="effect2_innerShadow_36_5"/>
<feGaussianBlur stdDeviation="50" result="effect3_foregroundBlur_36_5"/>
</filter>
<linearGradient id="paint0_linear_36_5" x1="348" y1="802.5" x2="405" y2="685" gradientUnits="userSpaceOnUse">
<stop offset="0.92603" stop-color="#674F68"/>
<stop offset="1" stop-color="#2A0F13"/>
</linearGradient>
<linearGradient id="paint1_linear_36_5" x1="497.5" y1="620.5" x2="497.5" y2="555.5" gradientUnits="userSpaceOnUse">
<stop stop-color="#84C74A"/>
<stop offset="1" stop-color="#131416" stop-opacity="0"/>
</linearGradient>
</defs>
</svg>
